# xmcd
#
# Track frame offsets:
#	150
#	16151
#	31612
#	48945
#	68780
#	77228
#	92807
#	112851
#	128514
#	151404
#
# Disc length: 2265 seconds
#
# Revision: 1
# Processed by: cddbd v1.5.2PL0 Copyright (c) Steve Scherf et al.
# Submitted via: audiograbber 1.83.01
#
DISCID=6908d70a
DTITLE=Shaun Kirk - Thank you for giving me the blues
DYEAR=1900
DGENRE=Blues
TTITLE0=Thank you for giving me the blues
TTITLE1=Steam train
TTITLE2=I live the life I love and love the life I live
TTITLE3=Drug got a hold onto you
TTITLE4=The howlin' harp boogie
TTITLE5=You don't know me
TTITLE6=Chicken and corn
TTITLE7=I just wanna make love to you
TTITLE8=Find somebody to love
TTITLE9=Who do you love (feat Lloyd Spiegel)
EXTD=
EXTT0=
EXTT1=
EXTT2=
EXTT3=
EXTT4=
EXTT5=
EXTT6=
EXTT7=
EXTT8=
EXTT9=
PLAYORDER=
